<svg xmlns="http://www.w3.org/2000/svg" xmlns:xlink="http://www.w3.org/1999/xlink" width="22.607" height="22.579" viewBox="0 0 22.607 22.579">
  <defs>
    <clipPath id="clip-path">
      <rect id="Rectangle_8" data-name="Rectangle 8" width="22.607" height="22.579" fill="#c00"/>
    </clipPath>
  </defs>
  <g id="Group_33" data-name="Group 33" transform="translate(0 0)">
    <g id="Group_7" data-name="Group 7" transform="translate(0 0)" clip-path="url(#clip-path)">
      <path id="Path_23" data-name="Path 23" d="M22.231,20.442,16.687,14.9A9.292,9.292,0,0,0,9.284,0,9.292,9.292,0,0,0,2.718,15.858a9.268,9.268,0,0,0,12.172.836l5.575,5.513a1.24,1.24,0,0,0,.9.372,1.293,1.293,0,0,0,.9-.372,1.263,1.263,0,0,0-.031-1.765M9.315,16.075a6.783,6.783,0,1,1,4.8-11.584,6.62,6.62,0,0,1,1.982,4.8,6.8,6.8,0,0,1-1.982,4.8,6.671,6.671,0,0,1-4.8,1.982" transform="translate(0 0)" fill="#c00"/>
    </g>
  </g>
</svg>
