<svg xmlns="http://www.w3.org/2000/svg" width="66" height="27.824" viewBox="0 0 66 27.824">
  <g id="Group_503" data-name="Group 503" transform="translate(0 0)">
    <path id="Path_372" data-name="Path 372" d="M1.348,58.792l.029-.157L3.763,58.6l-.058.3c-.159.957.269,1.158,3.727,1.164,3.085.005,3.428-.266,3.558-1.065L11,58.966c.144-.771-.2-1.071-3.855-1.321-4.7-.308-5.34-1.024-4.965-3.108.375-2.114,1.277-3.069,6.09-3.061,5.2.009,5.883.939,5.494,3.109l-.029.129-2.386.053.043-.286c.144-.785-.269-1.058-3.326-1.063-2.857-.005-3.314.266-3.444.98-.13.757.155.986,3.826,1.221,4.671.308,5.326,1.266,4.98,3.266-.418,2.285-1.205,3.14-6.162,3.132-5.385-.009-6.384-.64-5.922-3.224" transform="translate(-0.829 -34.193)" fill="#008ac9"/>
    <path id="Path_373" data-name="Path 373" d="M38.529,62.265l-2.714,0c1.3-1.941,5.171-7.962,6.546-10.131l4.071.007c.582,2.158,2.286,8.2,2.854,10.147l-2.486,0-.482-1.8Zm1.526-2.442,5.751-1.3-.17-.7c-.3-1.186-.61-2.43-.865-3.515l-1.372,0c-.616,1.042-3.344,5.52-3.344,5.52" transform="translate(-23.79 -34.627)" fill="#008ac9"/>
    <path id="Path_374" data-name="Path 374" d="M79.81,53.963c.13-.714.216-1.2.3-1.785l7.428.013c3.414.006,4.455.836,4.138,2.621-.2,1.157-.746,1.927-2.575,2.3,1.8.389,2.14,1.218,1.91,2.546-.346,1.956-1.333,2.683-4.761,2.677l-7.942-.014c.13-.657.231-1.257.418-2.3Zm1.664,4.145-.418,2.342,5.285.009c1.657,0,2.129-.267,2.287-1.139s-.284-1.2-1.884-1.2Zm.736-4.056-.4,2.228,5.185.009c1.557,0,2.043-.339,2.187-1.124.13-.757-.212-1.1-1.769-1.1Z" transform="translate(-52.017 -34.659)" fill="#008ac9"/>
    <path id="Path_375" data-name="Path 375" d="M119.879,54.032c.13-.714.217-1.2.3-1.785l7.2.012c3.5.006,4.726,1.094,4.279,3.478a3.231,3.231,0,0,1-2.933,3.023c.242.429.47.872.7,1.329.37.744.769,1.516,1.182,2.316l-2.643,0c-.256-.586-.569-1.215-.911-1.859l-.726-1.358-4.957-.009-.158.914c-.2,1.114-.288,1.6-.4,2.3l-2.429,0c.13-.657.231-1.257.418-2.3Zm2.357.247-.5,2.9,4.928.009c1.814,0,2.358-.468,2.545-1.5.187-1-.226-1.4-2.026-1.4Z" transform="translate(-78.633 -34.705)" fill="#008ac9"/>
    <path id="Path_376" data-name="Path 376" d="M159.652,54.1c.13-.714.217-1.2.3-1.785l10.628.018-.361,2c-2.143-.017-4.857-.022-6.714-.026l-1.485,0-.361,2.042,7.6.013-.332,1.913c-2.828-.019-3.728-.021-5.3-.023l-2.314,0-.4,2.228,1.871,0c1.914,0,5,.009,6.6,0l-.361,2-10.87-.018c.13-.657.231-1.257.418-2.3Z" transform="translate(-105.052 -34.75)" fill="#008ac9"/>
    <path id="Path_377" data-name="Path 377" d="M64.578,1.859,64.56,12.212,39.909,6.993ZM66,.113,33,6.981l32.976,6.981ZM0,13.849,33,6.981.024,0Z" transform="translate(0 0)" fill="#008ac9"/>
  </g>
</svg>
