<svg xmlns="http://www.w3.org/2000/svg" xmlns:xlink="http://www.w3.org/1999/xlink" width="171.264" height="60.735" viewBox="0 0 171.264 60.735">
  <defs>
    <linearGradient id="linear-gradient" x1="-0.629" y1="0.5" x2="0.739" y2="0.5" gradientUnits="objectBoundingBox">
      <stop offset="0" stop-color="#0c0c0c" stop-opacity="0.651"/>
      <stop offset="1" stop-color="#d8d8d8" stop-opacity="0.102"/>
    </linearGradient>
  </defs>
  <g id="Symbols" transform="translate(0)">
    <g id="Alco-Valves-Logo" transform="translate(0 0)">
      <g id="Group">
        <g id="Page-1">
          <path id="Fill-1" d="M15.539,0,0,44.246H8.113L28.476,35.4,37.27,60.735h8.8L61.6,16.506l.018-.022H53.508l-.011,0-.164.072L33.1,25.394,24.337,0Zm4.244,9.86,6.381,18.563-14.887,6.5Zm19.8,34.364H39.6l-.965-2.8-3.092-9.152,14.935-6.137L49.3,29.523,41.827,50.874Z" transform="translate(0 0)" fill="#c8102e" fill-rule="evenodd"/>
          <path id="Fill-2" d="M120.182,46.988V41.934H106.555V17.619h-5.344V46.988Z" transform="translate(-6.584 -1.146)" fill="#fff" fill-rule="evenodd"/>
          <path id="Fill-3" d="M86.068,41.408l1.905,5.633h5.592L83.251,17.673H77.41L67.1,47.041h5.385Zm-1.657-4.8-9.935,4.05,5.751-16.435Z" transform="translate(-4.365 -1.15)" fill="#fff" fill-rule="evenodd"/>
          <g id="Group-10" transform="translate(62.733 16.474)">
            <path id="Fill-4" d="M78.349,21.71a3.382,3.382,0,0,1-3.625,3.382h-5.69A3.4,3.4,0,0,1,65.4,21.454V9.44A3.4,3.4,0,0,1,69.051,5.8h5.673a3.4,3.4,0,0,1,3.638,3.64v.111h5.089V9.44c0-3.51-2.323-8.728-8.727-8.728h-5.69c-3.507,0-8.728,2.323-8.728,8.728V21.454c0,3.508,2.324,8.728,8.728,8.728h5.69c3.458,0,8.574-2.269,8.715-8.472Z" transform="translate(-4.015 -0.662)" fill="#fff" fill-rule="evenodd"/>
            <path id="Fill-6" d="M105.9,29.961h-5.657c-6.366,0-8.678-5.19-8.678-8.679V9.336c0-6.366,5.189-8.677,8.678-8.677H105.9c6.367,0,8.678,5.189,8.678,8.677V21.283c0,6.367-5.19,8.679-8.678,8.679ZM100.261,5.719a3.38,3.38,0,0,0-3.633,3.617V21.283a3.376,3.376,0,0,0,3.617,3.618H105.9a3.376,3.376,0,0,0,3.618-3.618V9.336A3.376,3.376,0,0,0,105.9,5.719Z" transform="translate(-6.048 -0.659)" fill="#fff" fill-rule="evenodd"/>
            <path id="Fill-8" d="M6.867,38.567H5.424l-1.9,6.57-1.91-6.57H.1l2.608,8.611H4.281Zm8.275,8.611L12.38,38.567H10.814L8.051,47.178H9.493L10,45.526h3.129l.51,1.652Zm-2.451-3.06H10.448l1.121-3.631Zm10.73,3.06V45.7H19.769V38.567H18.338v8.611Zm9.009-8.611H30.988l-1.9,6.57-1.909-6.57H25.66l2.609,8.611h1.576Zm8.8,8.611V45.757H37.058V43.4h3.673V41.992H37.058v-2H41.23V38.567h-5.6v8.611Zm10.01-2.563a2.414,2.414,0,0,0-2.164-2.489c-.51-.074-1.21-.135-1.709-.22a.886.886,0,0,1-.8-.935,1.043,1.043,0,0,1,.267-.728,1.677,1.677,0,0,1,1.275-.473,1.717,1.717,0,0,1,1.2.461,1.464,1.464,0,0,1,.343.85h1.466a2.72,2.72,0,0,0-.8-1.834,3.083,3.083,0,0,0-2.2-.838,3.2,3.2,0,0,0-2.308.912,2.482,2.482,0,0,0-.688,1.7,2.3,2.3,0,0,0,2,2.4c.523.1,1.21.122,1.743.231a1.017,1.017,0,0,1,.932,1.02,1.116,1.116,0,0,1-.31.826,1.8,1.8,0,0,1-1.365.462A1.773,1.773,0,0,1,46.8,45.5a1.579,1.579,0,0,1-.41-1.056H44.925a2.867,2.867,0,0,0,.821,2,3.689,3.689,0,0,0,4.839-.036,2.544,2.544,0,0,0,.654-1.8Zm15.527,2.563V42.466H63.5v1.3h1.876a2.346,2.346,0,0,1-.51,1.675,1.515,1.515,0,0,1-1.177.5,1.713,1.713,0,0,1-1.276-.547,4.04,4.04,0,0,1-.622-2.514,3.912,3.912,0,0,1,.611-2.477,1.772,1.772,0,0,1,1.286-.583,1.515,1.515,0,0,1,1.254.522,1.389,1.389,0,0,1,.344.79h1.466a2.756,2.756,0,0,0-.722-1.736,3.1,3.1,0,0,0-2.331-.985,3.233,3.233,0,0,0-2.342,1.008,4.723,4.723,0,0,0-1.02,3.461,4.972,4.972,0,0,0,1.02,3.5,2.87,2.87,0,0,0,2.342.958,2.265,2.265,0,0,0,1.976-1.1l.166.947Zm10.643,0-1.442-3.522a2.5,2.5,0,0,0,1.442-2.417,2.537,2.537,0,0,0-2.73-2.672H71.362v8.611H72.8V43.922h1.743l1.309,3.255Zm-1.431-5.939A1.161,1.161,0,0,1,74.7,42.514H72.793V39.94H74.68a1.257,1.257,0,0,1,1.3,1.3Zm11.742,1.639a4.805,4.805,0,0,0-1-3.5,3.124,3.124,0,0,0-4.528,0,4.806,4.806,0,0,0-1,3.5,4.773,4.773,0,0,0,1,3.485,3.124,3.124,0,0,0,4.528,0,4.772,4.772,0,0,0,1-3.485Zm-1.454,0a3.857,3.857,0,0,1-.566,2.465,1.638,1.638,0,0,1-2.486,0,3.857,3.857,0,0,1-.567-2.465,3.892,3.892,0,0,1,.567-2.477,1.638,1.638,0,0,1,2.486,0,3.891,3.891,0,0,1,.566,2.477Zm11.764,1V38.567H96.6V43.85c0,1.227-.51,2.064-1.654,2.064s-1.653-.838-1.653-2.064V38.567H91.861v5.308c0,2.052,1.055,3.46,3.085,3.46s3.085-1.408,3.085-3.46Zm10.455-2.551a2.542,2.542,0,0,0-2.774-2.757h-3.085v8.611h1.42V44.093h1.665a2.551,2.551,0,0,0,2.774-2.768Zm-1.442.012a1.253,1.253,0,0,1-1.387,1.385h-1.61V39.94h1.61a1.261,1.261,0,0,1,1.387,1.4Z" transform="translate(-0.098 -3.115)" fill="#fff" fill-rule="evenodd"/>
          </g>
        </g>
        <path id="Rectangle" d="M.644.106,12.088,0l-.122,7.282L0,7.415Z" transform="translate(29.078 35.249) rotate(157)" fill-rule="evenodd" fill="url(#linear-gradient)" style="mix-blend-mode: multiply;isolation: isolate"/>
        <path id="Rectangle-2" data-name="Rectangle" d="M.324.314,12.1,0l-.108,7.533L0,7.6Z" transform="matrix(0.927, -0.375, 0.375, 0.927, 32.693, 25.229)" fill-rule="evenodd" fill="url(#linear-gradient)" style="mix-blend-mode: multiply;isolation: isolate"/>
      </g>
    </g>
  </g>
</svg>
