<svg xmlns="http://www.w3.org/2000/svg" xmlns:xlink="http://www.w3.org/1999/xlink" width="172" height="60.996" viewBox="0 0 172 60.996">
  <defs>
    <linearGradient id="linear-gradient" x1="-0.629" y1="0.5" x2="0.739" y2="0.5" gradientUnits="objectBoundingBox">
      <stop offset="0" stop-color="#0c0c0c" stop-opacity="0.651"/>
      <stop offset="1" stop-color="#d8d8d8" stop-opacity="0.102"/>
    </linearGradient>
  </defs>
  <g id="Symbols" transform="translate(0 0)">
    <g id="Alco-Valves-Logo" transform="translate(0 0)">
      <g id="Group">
        <g id="Page-1">
          <path id="Fill-1" d="M15.606,0,0,44.437H8.148L28.6,35.555,37.43,61h8.838l15.6-44.42.018-.022H53.738l-.011,0-.164.072L33.244,25.5,24.442,0Zm4.262,9.9,6.408,18.643L11.325,35.073ZM39.751,44.414h.021L38.8,41.606,35.7,32.414l15-6.163-1.185,3.4-7.5,21.443Z" transform="translate(0 0)" fill="#c8102e" fill-rule="evenodd"/>
          <path id="Fill-2" d="M120.264,47.114V42.039H106.578V17.619h-5.367V47.114Z" transform="translate(-6.177 -1.075)" fill="#282727" fill-rule="evenodd"/>
          <path id="Fill-3" d="M86.15,41.51l1.914,5.657h5.616L83.32,17.673H77.455L67.1,47.167h5.408Zm-1.664-4.825-9.977,4.068,5.776-16.505Z" transform="translate(-4.095 -1.079)" fill="#282727" fill-rule="evenodd"/>
          <g id="Group-10" transform="translate(63.003 16.545)">
            <path id="Fill-4" d="M78.426,21.8a3.4,3.4,0,0,1-3.64,3.4H69.071a3.409,3.409,0,0,1-3.654-3.654V9.477a3.416,3.416,0,0,1,3.67-3.655h5.7a3.409,3.409,0,0,1,3.654,3.655v.112H83.55V9.477c0-3.525-2.333-8.765-8.764-8.765H69.071c-3.522,0-8.765,2.333-8.765,8.765V21.543c0,3.523,2.334,8.765,8.765,8.765h5.715c3.473,0,8.61-2.279,8.752-8.508Z" transform="translate(-3.773 -0.662)" fill="#282727" fill-rule="evenodd"/>
            <path id="Fill-6" d="M105.963,30.087h-5.681c-6.393,0-8.715-5.212-8.715-8.716v-12c0-6.393,5.211-8.714,8.715-8.714h5.681c6.394,0,8.715,5.211,8.715,8.714v12c0,6.394-5.212,8.716-8.715,8.716ZM100.3,5.741A3.394,3.394,0,0,0,96.65,9.373v12A3.39,3.39,0,0,0,100.282,25h5.681a3.39,3.39,0,0,0,3.633-3.633v-12a3.391,3.391,0,0,0-3.633-3.632Z" transform="translate(-5.681 -0.659)" fill="#282727" fill-rule="evenodd"/>
            <path id="Fill-8" d="M6.9,38.568H5.447l-1.905,6.6-1.918-6.6H.1l2.619,8.648H4.3Zm8.311,8.648-2.775-8.648H10.86L8.085,47.216H9.534l.514-1.659H13.19l.513,1.659Zm-2.462-3.073H10.492L11.618,40.5Zm10.777,3.073V45.727H19.854v-7.16H18.416v8.648Zm9.048-8.648H31.121l-1.906,6.6-1.917-6.6H25.77l2.62,8.648h1.583Zm8.838,8.648V45.788H37.216V43.422h3.689V42.007H37.216V39.995h4.191V38.568H35.779v8.648ZM51.46,44.642a2.424,2.424,0,0,0-2.174-2.5c-.512-.074-1.215-.135-1.716-.221a.89.89,0,0,1-.8-.939,1.047,1.047,0,0,1,.269-.731,1.685,1.685,0,0,1,1.281-.475,1.725,1.725,0,0,1,1.2.463,1.47,1.47,0,0,1,.345.854h1.472a2.732,2.732,0,0,0-.8-1.842,3.1,3.1,0,0,0-2.207-.841,3.211,3.211,0,0,0-2.318.915,2.492,2.492,0,0,0-.691,1.707,2.311,2.311,0,0,0,2.006,2.415c.525.1,1.215.122,1.75.232a1.021,1.021,0,0,1,.936,1.024,1.121,1.121,0,0,1-.312.829A1.8,1.8,0,0,1,48.328,46,1.781,1.781,0,0,1,47,45.532a1.586,1.586,0,0,1-.412-1.061H45.118a2.88,2.88,0,0,0,.824,2.012,3.705,3.705,0,0,0,4.86-.036,2.555,2.555,0,0,0,.657-1.806Zm15.593,2.574V42.483H63.776v1.305H65.66a2.356,2.356,0,0,1-.512,1.683,1.521,1.521,0,0,1-1.182.5,1.721,1.721,0,0,1-1.282-.549A4.057,4.057,0,0,1,62.06,42.9a3.929,3.929,0,0,1,.614-2.487,1.78,1.78,0,0,1,1.292-.586,1.522,1.522,0,0,1,1.259.524,1.4,1.4,0,0,1,.346.793h1.472a2.768,2.768,0,0,0-.725-1.744,3.115,3.115,0,0,0-2.341-.989,3.247,3.247,0,0,0-2.352,1.012A4.743,4.743,0,0,0,60.6,42.9a4.994,4.994,0,0,0,1.024,3.514,2.882,2.882,0,0,0,2.352.962,2.275,2.275,0,0,0,1.984-1.109l.167.951Zm10.689,0-1.448-3.537a2.506,2.506,0,0,0,1.448-2.427A2.548,2.548,0,0,0,75,38.568H71.668v8.648h1.449V43.946h1.75l1.315,3.269ZM76.3,41.251a1.166,1.166,0,0,1-1.282,1.281H73.106V39.946H75a1.262,1.262,0,0,1,1.3,1.305ZM88.1,42.9a4.826,4.826,0,0,0-1-3.513,3.137,3.137,0,0,0-4.547,0,4.826,4.826,0,0,0-1,3.513,4.793,4.793,0,0,0,1,3.5,3.137,3.137,0,0,0,4.547,0,4.793,4.793,0,0,0,1-3.5Zm-1.46,0a3.873,3.873,0,0,1-.568,2.476,1.645,1.645,0,0,1-2.5,0A3.874,3.874,0,0,1,83,42.9a3.908,3.908,0,0,1,.569-2.487,1.645,1.645,0,0,1,2.5,0,3.908,3.908,0,0,1,.568,2.487Zm11.815,1V38.568H97.014v5.306c0,1.232-.513,2.073-1.661,2.073s-1.66-.841-1.66-2.073V38.568H92.255V43.9c0,2.061,1.059,3.475,3.1,3.475s3.1-1.414,3.1-3.475Zm10.5-2.562a2.553,2.553,0,0,0-2.786-2.769h-3.1v8.648h1.426v-3.1h1.672a2.562,2.562,0,0,0,2.786-2.78Zm-1.448.012a1.258,1.258,0,0,1-1.393,1.391h-1.617V39.946h1.617a1.267,1.267,0,0,1,1.393,1.4Z" transform="translate(-0.098 -2.963)" fill="#878787" fill-rule="evenodd"/>
          </g>
        </g>
        <path id="Rectangle" d="M.647.106,12.14,0l-.123,7.313L0,7.447Z" transform="translate(29.203 35.4) rotate(157)" fill-rule="evenodd" fill="url(#linear-gradient)" style="mix-blend-mode: multiply;isolation: isolate"/>
        <path id="Rectangle-2" data-name="Rectangle" d="M.326.316,12.148,0l-.109,7.566L0,7.628Z" transform="matrix(0.927, -0.375, 0.375, 0.927, 32.834, 25.338)" fill-rule="evenodd" fill="url(#linear-gradient)" style="mix-blend-mode: multiply;isolation: isolate"/>
      </g>
    </g>
  </g>
</svg>
